<svg width="18" height="26" viewBox="0 0 18 26" fill="none" xmlns="http://www.w3.org/2000/svg">
  <path
    d="M8.99507 13.0049C8.99507 10.6163 10.9316 8.66994 13.33 8.66994C15.7187 8.66994 17.665 10.6064 17.665 13.0049C17.665 15.3936 15.7285 17.3399 13.33 17.3399C10.9414 17.3399 8.99507 15.3936 8.99507 13.0049Z"
    fill="#1ABCFE" />
  <path
    d="M0.334955 21.665C0.334955 19.2764 2.27144 17.33 4.66993 17.33H9.0049V21.665C9.0049 24.0537 7.06841 26 4.66993 26C2.27144 26 0.334955 24.0635 0.334955 21.665Z"
    fill="#0ACF83" />
  <path
    d="M8.99507 0.00982987V8.66994H13.33C15.7187 8.66994 17.665 6.73346 17.665 4.33497C17.665 1.94631 15.7285 0 13.33 0H8.99507V0.00982987Z"
    fill="#FF7262" />
  <path
    d="M0.334955 4.3448C0.334955 6.73346 2.27144 8.67977 4.66993 8.67977H9.0049V0.00982666H4.66993C2.27144 0.00982666 0.334955 1.94631 0.334955 4.3448Z"
    fill="#F24E1E" />
  <path
    d="M0.334955 13.0049C0.334955 15.3936 2.27144 17.3399 4.66993 17.3399H9.0049V8.66994H4.66993C2.27144 8.66994 0.334955 10.6163 0.334955 13.0049Z"
    fill="#A259FF" />
</svg>
