<svg width="141" height="30" viewBox="0 0 141 30" fill="none" xmlns="http://www.w3.org/2000/svg">
<path d="M8.77772 0.101642C7.74993 0.414306 7.10943 1.11408 6.91579 2.15629C6.72215 3.1985 7.37754 4.46404 8.31595 4.85115L8.76282 5.02982V9.61555V14.2013L10.3715 16.2559L11.9653 18.3255L12.0398 24.0427C12.1143 29.1942 12.1441 29.7749 12.3675 29.9089C12.5611 30.0429 12.6952 30.0131 12.9186 29.8047C13.2314 29.5218 13.2315 29.3878 13.2315 23.8045V18.0724L11.5929 15.973L9.95445 13.8588V9.51133V5.14893L10.446 4.95537C11.1014 4.67249 11.8611 3.77916 11.9802 3.13894C12.3377 1.23319 10.5801 -0.434353 8.77772 0.101642ZM10.1034 1.3523C10.8184 1.72451 11.0418 2.46895 10.6843 3.25806C10.3417 4.00249 9.1352 4.19605 8.53939 3.6005C7.8393 2.90073 7.94357 1.79896 8.74793 1.3523C9.25437 1.0843 9.56717 1.0843 10.1034 1.3523Z" fill="#00FF99"/>
<path d="M14.3486 6.84624C13.2612 7.33757 12.6356 8.63289 12.9335 9.76444C13.1272 10.4791 13.8124 11.298 14.4231 11.5511L14.8699 11.7298L14.8998 20.7523C14.9444 29.2687 14.9593 29.76 15.2126 29.9238C15.436 30.0578 15.5403 30.028 15.7786 29.7302C16.0467 29.4027 16.0616 29.0751 16.0616 20.5439V11.7149L16.5978 11.4618C17.5511 11.0151 18.147 9.76443 17.9384 8.64778C17.8193 8.05223 17.1192 7.17379 16.4936 6.84624C15.9722 6.59313 14.9444 6.57824 14.3486 6.84624ZM16.4191 8.21601C17.1341 8.94556 16.8361 10.1813 15.8531 10.5089C14.9146 10.8066 14.0507 10.1515 14.0507 9.13911C14.0507 7.94801 15.5551 7.35246 16.4191 8.21601Z" fill="#00FF99"/>
<path d="M1.70241 8.49891C0.480986 8.93068 -0.159519 10.0027 0.0341208 11.3129C0.27245 12.8911 2.0599 13.8737 3.56434 13.2633C3.75798 13.1889 4.47295 13.978 6.5881 16.5537L9.35865 19.9484L9.38845 24.8468C9.43314 29.2389 9.46294 29.7749 9.68637 29.9089C9.86511 30.028 9.99917 30.0131 10.163 29.8792C10.3715 29.7005 10.4013 29.0454 10.4013 24.5192V19.3528L7.51164 15.854L4.63682 12.37L4.86026 11.9233C5.44118 10.7769 4.81556 9.07959 3.62393 8.58826C2.99832 8.33515 2.26843 8.29047 1.70241 8.49891ZM3.25153 9.69001C4.44316 10.3004 3.95161 12.2955 2.59613 12.2955C1.7471 12.2955 1.16618 11.7149 1.16618 10.8662C1.16618 10.3451 1.4045 9.95801 1.88115 9.7049C2.40249 9.42201 2.71529 9.40714 3.25153 9.69001Z" fill="#00FF99"/>
<path d="M20.7685 9.49646C19.7407 10.092 19.2194 11.566 19.6514 12.6975C19.8599 13.2484 20.4557 13.8737 20.992 14.0822L21.4239 14.2609V16.9706V19.6655L19.4875 21.601L17.5511 23.5365V26.6185C17.5511 29.5218 17.566 29.7154 17.8341 29.8643C18.2065 30.0578 18.2363 30.0578 18.5044 29.7749C18.6981 29.5814 18.7428 29.09 18.7428 26.7674V23.9832L20.6792 22.0477L22.6156 20.1121V17.2088V14.3055L23.2859 13.9482C24.1796 13.4718 24.6264 12.7571 24.6115 11.7744C24.5817 10.3004 23.6433 9.3029 22.1985 9.21357C21.5133 9.1689 21.2303 9.22847 20.7685 9.49646ZM22.8092 10.5238C23.4199 10.8067 23.7029 11.8042 23.3603 12.4593C23.122 12.8762 22.3623 13.2186 21.8857 13.1144C20.7834 12.8762 20.3515 11.4171 21.1707 10.7173C21.6176 10.3302 22.2283 10.2558 22.8092 10.5238Z" fill="#00FF99"/>
<path d="M42.8228 18.5H41.2525L39.7291 15.2344C39.6145 14.9844 39.4973 14.7786 39.3775 14.6172C39.2577 14.4505 39.1275 14.3203 38.9869 14.2266C38.8515 14.1276 38.7004 14.0573 38.5338 14.0156C38.3723 13.974 38.19 13.9531 37.9869 13.9531H37.3307V18.5H35.94V8.28906H38.6744C39.2682 8.28906 39.7786 8.35417 40.2057 8.48438C40.6327 8.61458 40.9817 8.79688 41.2525 9.03125C41.5286 9.26562 41.7291 9.54948 41.8541 9.88281C41.9843 10.2109 42.0494 10.5755 42.0494 10.9766C42.0494 11.2943 42.0025 11.5964 41.9088 11.8828C41.815 12.1641 41.6744 12.4219 41.4869 12.6562C41.3046 12.8854 41.0754 13.0859 40.7994 13.2578C40.5286 13.4245 40.2161 13.5495 39.8619 13.6328C40.1484 13.7318 40.3906 13.9062 40.5885 14.1562C40.7916 14.401 40.9973 14.7292 41.2057 15.1406L42.8228 18.5ZM40.5963 11.0938C40.5963 10.5469 40.4244 10.138 40.0807 9.86719C39.7421 9.59635 39.2629 9.46094 38.6432 9.46094H37.3307V12.8359H38.4557C38.7838 12.8359 39.0781 12.7995 39.3385 12.7266C39.6041 12.6484 39.8281 12.5365 40.0103 12.3906C40.1978 12.2396 40.3411 12.0573 40.44 11.8438C40.5442 11.625 40.5963 11.375 40.5963 11.0938ZM51.4869 14.5156C51.4869 15.125 51.401 15.6849 51.2291 16.1953C51.0572 16.7005 50.8098 17.1354 50.4869 17.5C50.164 17.8594 49.7708 18.1406 49.3072 18.3438C48.8437 18.5417 48.3176 18.6406 47.7291 18.6406C47.1666 18.6406 46.6614 18.5547 46.2135 18.3828C45.7708 18.2057 45.3932 17.9479 45.0807 17.6094C44.7734 17.2708 44.5364 16.8516 44.3697 16.3516C44.2083 15.8516 44.1275 15.276 44.1275 14.625C44.1275 14.0156 44.2135 13.4609 44.3853 12.9609C44.5572 12.4557 44.8046 12.0234 45.1275 11.6641C45.4504 11.2995 45.8437 11.0182 46.3072 10.8203C46.7708 10.6172 47.2968 10.5156 47.8853 10.5156C48.4478 10.5156 48.9504 10.6042 49.3932 10.7812C49.8411 10.9531 50.2187 11.2083 50.526 11.5469C50.8385 11.8802 51.0754 12.2969 51.2369 12.7969C51.4036 13.2969 51.4869 13.8698 51.4869 14.5156ZM50.0963 14.5781C50.0963 14.0938 50.0416 13.6719 49.9322 13.3125C49.8281 12.9479 49.677 12.6458 49.4791 12.4062C49.2812 12.1615 49.039 11.9792 48.7525 11.8594C48.4713 11.7344 48.1562 11.6719 47.8072 11.6719C47.401 11.6719 47.052 11.7526 46.7603 11.9141C46.4739 12.0703 46.2369 12.2812 46.0494 12.5469C45.8671 12.8125 45.7317 13.1224 45.6432 13.4766C45.5598 13.8255 45.5182 14.1927 45.5182 14.5781C45.5182 15.0625 45.5702 15.487 45.6744 15.8516C45.7838 16.2161 45.9374 16.5208 46.1353 16.7656C46.3333 17.0052 46.5728 17.1875 46.8541 17.3125C47.1353 17.4323 47.4531 17.4922 47.8072 17.4922C48.2135 17.4922 48.5598 17.4141 48.8463 17.2578C49.1379 17.0964 49.3749 16.8828 49.5572 16.6172C49.7447 16.3516 49.8801 16.0443 49.9635 15.6953C50.052 15.3411 50.0963 14.9688 50.0963 14.5781ZM60.4322 10.6562L57.7603 17.6719C57.4843 18.3854 57.1978 19 56.901 19.5156C56.6093 20.0312 56.289 20.4531 55.94 20.7812C55.5911 21.1146 55.2083 21.3594 54.7916 21.5156C54.3749 21.6719 53.9088 21.75 53.3932 21.75C53.2577 21.75 53.1353 21.7474 53.026 21.7422C52.9166 21.737 52.7968 21.7292 52.6666 21.7188V20.4844C52.7812 20.5 52.9062 20.513 53.0416 20.5234C53.177 20.5391 53.3202 20.5469 53.4713 20.5469C53.7213 20.5469 53.9531 20.5104 54.1666 20.4375C54.3853 20.3646 54.5911 20.2448 54.7838 20.0781C54.9765 19.9167 55.1614 19.7057 55.3385 19.4453C55.5156 19.1849 55.6874 18.8698 55.8541 18.5L52.7213 10.6562H54.2682L56.2525 15.8438L56.651 17.0625L57.1041 15.8125L58.94 10.6562H60.4322ZM69.7213 18.5H68.2057L67.4947 16.2734H63.2447L62.526 18.5H61.0807L64.4713 8.28906H66.3775L69.7213 18.5ZM67.0963 15.0312L65.3697 9.57031L63.6432 15.0312H67.0963ZM71.0494 10.6562H72.2603L72.315 11.9219C72.5442 11.651 72.7656 11.4271 72.9791 11.25C73.1926 11.0677 73.401 10.9219 73.6041 10.8125C73.8124 10.7031 74.0234 10.6276 74.2369 10.5859C74.4504 10.5391 74.6718 10.5156 74.901 10.5156C75.7083 10.5156 76.3176 10.7552 76.7291 11.2344C77.1458 11.7083 77.3541 12.4245 77.3541 13.3828V18.5H75.9947V13.4922C75.9947 12.8776 75.8801 12.4245 75.651 12.1328C75.4218 11.8359 75.0807 11.6875 74.6275 11.6875C74.4609 11.6875 74.2968 11.7135 74.1353 11.7656C73.9791 11.8125 73.815 11.8984 73.6432 12.0234C73.4713 12.1432 73.2838 12.3073 73.0807 12.5156C72.8827 12.724 72.6588 12.9844 72.4088 13.2969V18.5H71.0494V10.6562ZM79.4478 14.7422C79.4478 14.0755 79.539 13.4844 79.7213 12.9688C79.9036 12.4479 80.1614 12.0104 80.4947 11.6562C80.8333 11.2969 81.2369 11.026 81.7057 10.8438C82.1796 10.6562 82.7057 10.5625 83.2838 10.5625C83.5338 10.5625 83.7786 10.5781 84.0182 10.6094C84.2629 10.6406 84.5025 10.6901 84.7369 10.7578V7.46094H86.1041V18.5H84.8853L84.8385 17.0156C84.4583 17.5677 84.0468 17.9766 83.6041 18.2422C83.1614 18.5078 82.6822 18.6406 82.1666 18.6406C81.7187 18.6406 81.3228 18.5469 80.9791 18.3594C80.6406 18.1719 80.3567 17.9089 80.1275 17.5703C79.9036 17.2266 79.7343 16.8151 79.6197 16.3359C79.5051 15.8568 79.4478 15.3255 79.4478 14.7422ZM80.8385 14.6562C80.8385 15.6042 80.9765 16.3125 81.2525 16.7812C81.5338 17.2448 81.9296 17.4766 82.44 17.4766C82.7838 17.4766 83.1458 17.3229 83.526 17.0156C83.9114 16.7083 84.315 16.2526 84.7369 15.6484V12.0078C84.5129 11.9036 84.2656 11.8255 83.9947 11.7734C83.7239 11.7161 83.4557 11.6875 83.19 11.6875C82.4504 11.6875 81.8723 11.9271 81.4557 12.4062C81.0442 12.8854 80.8385 13.6354 80.8385 14.6562ZM88.9635 10.6562H90.2057L90.2447 12.1016C90.7083 11.5443 91.164 11.1406 91.6119 10.8906C92.065 10.6406 92.5208 10.5156 92.9791 10.5156C93.7916 10.5156 94.4062 10.7786 94.8228 11.3047C95.2447 11.8307 95.44 12.612 95.4088 13.6484H94.0338C94.0494 12.9609 93.9478 12.4635 93.7291 12.1562C93.5156 11.8438 93.2004 11.6875 92.7838 11.6875C92.6015 11.6875 92.4166 11.7214 92.2291 11.7891C92.0468 11.8516 91.8567 11.9557 91.6588 12.1016C91.4661 12.2422 91.2603 12.4245 91.0416 12.6484C90.8228 12.8724 90.5885 13.1432 90.3385 13.4609V18.5H88.9635V10.6562ZM104.065 14.1641C104.065 14.3568 104.062 14.5182 104.057 14.6484C104.052 14.7786 104.044 14.901 104.034 15.0156H98.526C98.526 15.8177 98.7499 16.4349 99.1978 16.8672C99.6458 17.2943 100.292 17.5078 101.135 17.5078C101.365 17.5078 101.594 17.5 101.823 17.4844C102.052 17.4635 102.273 17.4375 102.487 17.4062C102.7 17.375 102.904 17.3411 103.096 17.3047C103.294 17.263 103.476 17.2188 103.643 17.1719V18.2891C103.273 18.3932 102.854 18.4766 102.385 18.5391C101.922 18.6068 101.44 18.6406 100.94 18.6406C100.268 18.6406 99.69 18.5495 99.2057 18.3672C98.7213 18.1849 98.3228 17.9219 98.0103 17.5781C97.7031 17.2292 97.4739 16.8047 97.3228 16.3047C97.177 15.7995 97.1041 15.2292 97.1041 14.5938C97.1041 14.0417 97.1822 13.5208 97.3385 13.0312C97.4999 12.5365 97.7317 12.1042 98.0338 11.7344C98.3411 11.3594 98.7161 11.0625 99.1588 10.8438C99.6015 10.625 100.104 10.5156 100.667 10.5156C101.213 10.5156 101.698 10.6016 102.12 10.7734C102.542 10.9453 102.896 11.1901 103.182 11.5078C103.474 11.8203 103.693 12.2031 103.838 12.6562C103.99 13.1042 104.065 13.6068 104.065 14.1641ZM102.651 13.9688C102.667 13.6198 102.633 13.3021 102.549 13.0156C102.466 12.724 102.336 12.474 102.159 12.2656C101.987 12.0573 101.771 11.8958 101.51 11.7812C101.25 11.6615 100.948 11.6016 100.604 11.6016C100.307 11.6016 100.036 11.6589 99.7916 11.7734C99.5468 11.888 99.3359 12.0495 99.1588 12.2578C98.9817 12.4661 98.8385 12.7161 98.7291 13.0078C98.6197 13.2995 98.552 13.6198 98.526 13.9688H102.651ZM112.448 16.3594C112.448 16.6354 112.401 16.8828 112.307 17.1016C112.213 17.3203 112.086 17.5156 111.924 17.6875C111.763 17.8542 111.575 17.9974 111.362 18.1172C111.148 18.237 110.919 18.3359 110.674 18.4141C110.435 18.4922 110.187 18.5495 109.932 18.5859C109.677 18.6224 109.427 18.6406 109.182 18.6406C108.651 18.6406 108.161 18.6172 107.713 18.5703C107.271 18.5234 106.836 18.4479 106.409 18.3438V17.0938C106.867 17.224 107.323 17.3229 107.776 17.3906C108.229 17.4583 108.68 17.4922 109.128 17.4922C109.779 17.4922 110.26 17.4036 110.573 17.2266C110.885 17.0495 111.042 16.7969 111.042 16.4688C111.042 16.3281 111.016 16.2031 110.963 16.0938C110.917 15.9792 110.828 15.8724 110.698 15.7734C110.568 15.6693 110.365 15.5625 110.088 15.4531C109.818 15.3438 109.445 15.2188 108.971 15.0781C108.617 14.974 108.289 14.8568 107.987 14.7266C107.69 14.5911 107.432 14.4323 107.213 14.25C106.995 14.0677 106.823 13.8542 106.698 13.6094C106.573 13.3646 106.51 13.0755 106.51 12.7422C106.51 12.5234 106.56 12.2839 106.659 12.0234C106.763 11.763 106.937 11.5208 107.182 11.2969C107.427 11.0729 107.758 10.888 108.174 10.7422C108.591 10.5911 109.112 10.5156 109.737 10.5156C110.044 10.5156 110.385 10.5339 110.76 10.5703C111.135 10.6016 111.526 10.6589 111.932 10.7422V11.9531C111.505 11.849 111.099 11.7734 110.713 11.7266C110.333 11.6745 110.003 11.6484 109.721 11.6484C109.383 11.6484 109.096 11.6745 108.862 11.7266C108.633 11.7786 108.445 11.8516 108.299 11.9453C108.159 12.0339 108.057 12.1406 107.995 12.2656C107.932 12.3854 107.901 12.5156 107.901 12.6562C107.901 12.7969 107.927 12.9245 107.979 13.0391C108.036 13.1536 108.138 13.2656 108.284 13.375C108.435 13.4792 108.643 13.5859 108.909 13.6953C109.174 13.7995 109.521 13.9141 109.948 14.0391C110.411 14.1745 110.802 14.3177 111.12 14.4688C111.437 14.6146 111.695 14.7786 111.893 14.9609C112.091 15.1432 112.232 15.349 112.315 15.5781C112.404 15.8073 112.448 16.0677 112.448 16.3594ZM122.01 13.2812C122.01 13.7708 121.971 14.2396 121.893 14.6875C121.82 15.1354 121.7 15.5521 121.534 15.9375C121.367 16.3229 121.151 16.6745 120.885 16.9922C120.62 17.3047 120.294 17.5729 119.909 17.7969C119.523 18.0208 119.075 18.1953 118.565 18.3203C118.055 18.4401 117.474 18.5 116.823 18.5H114.635V8.28906H117.268C118.862 8.28906 120.049 8.70052 120.831 9.52344C121.617 10.3411 122.01 11.5938 122.01 13.2812ZM120.549 13.3828C120.549 12.6589 120.482 12.0469 120.346 11.5469C120.211 11.0469 120.005 10.6432 119.729 10.3359C119.453 10.0286 119.107 9.80729 118.69 9.67188C118.273 9.53125 117.784 9.46094 117.221 9.46094H116.026V17.2969H117.065C119.388 17.2969 120.549 15.9922 120.549 13.3828ZM130.456 14.1641C130.456 14.3568 130.453 14.5182 130.448 14.6484C130.443 14.7786 130.435 14.901 130.424 15.0156H124.917C124.917 15.8177 125.141 16.4349 125.588 16.8672C126.036 17.2943 126.682 17.5078 127.526 17.5078C127.755 17.5078 127.984 17.5 128.213 17.4844C128.443 17.4635 128.664 17.4375 128.878 17.4062C129.091 17.375 129.294 17.3411 129.487 17.3047C129.685 17.263 129.867 17.2188 130.034 17.1719V18.2891C129.664 18.3932 129.245 18.4766 128.776 18.5391C128.312 18.6068 127.831 18.6406 127.331 18.6406C126.659 18.6406 126.081 18.5495 125.596 18.3672C125.112 18.1849 124.713 17.9219 124.401 17.5781C124.094 17.2292 123.865 16.8047 123.713 16.3047C123.568 15.7995 123.495 15.2292 123.495 14.5938C123.495 14.0417 123.573 13.5208 123.729 13.0312C123.891 12.5365 124.122 12.1042 124.424 11.7344C124.732 11.3594 125.107 11.0625 125.549 10.8438C125.992 10.625 126.495 10.5156 127.057 10.5156C127.604 10.5156 128.088 10.6016 128.51 10.7734C128.932 10.9453 129.286 11.1901 129.573 11.5078C129.865 11.8203 130.083 12.2031 130.229 12.6562C130.38 13.1042 130.456 13.6068 130.456 14.1641ZM129.042 13.9688C129.057 13.6198 129.023 13.3021 128.94 13.0156C128.857 12.724 128.726 12.474 128.549 12.2656C128.378 12.0573 128.161 11.8958 127.901 11.7812C127.641 11.6615 127.338 11.6016 126.995 11.6016C126.698 11.6016 126.427 11.6589 126.182 11.7734C125.937 11.888 125.726 12.0495 125.549 12.2578C125.372 12.4661 125.229 12.7161 125.12 13.0078C125.01 13.2995 124.943 13.6198 124.917 13.9688H129.042ZM131.893 10.6562H133.44L135.362 15.8438L135.776 17.1094L136.206 15.8125L138.112 10.6562H139.604L136.526 18.5H134.963L131.893 10.6562Z" fill="#00FF99"/>
</svg>
